<?xml version="1.0" encoding="UTF-8"?>
<svg id="Layer_1" data-name="Layer 1" xmlns="http://www.w3.org/2000/svg" viewBox="0 0 198.25 34.3">
  <defs>
    <style>
      .cls-1 {
        fill: #fff;
      }
    </style>
  </defs>
  <path class="cls-1" d="M141.57,6.94h8.38V29.04h2.27V6.94h8.38v-2.01h-19.04v2.01h0Zm24.45,4.19c-5.33,0-8.21,4.19-8.21,9.17s2.88,9.17,8.21,9.17,8.21-4.19,8.21-9.17-2.88-9.17-8.21-9.17Zm0,1.75c4.1,0,6.11,3.67,6.11,7.42s-2.01,7.42-6.11,7.42-6.11-3.67-6.11-7.42,2.01-7.42,6.11-7.42Zm18.69-1.75c-5.33,0-8.21,4.19-8.21,9.17s2.88,9.17,8.21,9.17,8.21-4.19,8.21-9.17-2.88-9.17-8.21-9.17Zm0,1.75c4.1,0,6.11,3.67,6.11,7.42s-2.01,7.42-6.11,7.42-6.11-3.67-6.11-7.42,2.01-7.42,6.11-7.42Zm11.44,16.07h2.1V4.93h-2.1V28.95Z"/>
  <path class="cls-1" d="M66.2,29.21h10.39c7.34,0,10.92-5.15,10.92-12.14,0-7.95-4.72-11.88-10.92-11.88h-10.39V29.21Zm5.24-19.56h3.76c5.24,0,6.9,3.14,6.9,7.95,0,5.33-2.88,7.16-6.03,7.16h-4.63s0-15.11,0-15.11Zm19.65,19.56h4.98V12.36l5.85,16.86h4.1l5.85-17.03h.09V29.21h4.98V5.2h-7.42l-5.33,16.51h-.09l-5.59-16.51h-7.42V29.22h0Zm30.48-.01h5.24v-8.65h5.59c6.03,0,8.3-3.84,8.3-7.69s-2.36-7.69-8.3-7.69h-10.83V29.21Zm5.24-19.91h4.19c2.45,0,4.63,.52,4.63,3.58s-2.18,3.58-4.63,3.58h-4.1v-7.16h-.09Z"/>
  <path class="cls-1" d="M1.05,19.26l.96-.35,30.57,12.58,22.01-10.04,.79,.26c.52,.17,.96,.61,1.05,1.14,0,.52-.35,1.05-.87,1.22l-21.83,10.04c-.7,.26-1.48,.26-2.18,0L.96,21.62c-.52-.18-.96-.62-.96-1.14,.09-.61,.52-1.05,1.05-1.22Z"/>
  <path class="cls-1" d="M1.05,13.84l1.14-.44c2.53,1.14,30.39,12.14,30.39,12.14l21.75-9.61,1.05,.35c.52,.17,.96,.61,1.05,1.14,0,.52-.35,1.05-.87,1.22l-21.83,9.69c-.35,.17-.7,.26-1.05,.17-.35,0-.7-.09-.96-.17L.96,16.2c-.52-.17-.96-.61-.96-1.22,.09-.52,.52-.96,1.05-1.14Z"/>
  <path class="cls-1" d="M55.63,12.97c-.09,0-1.92,.96-7.69,3.49-1.22,.52-2.62,.87-3.93,.87H20.26c-1.75,0-3.41-.26-5.07-.87C7.42,13.49,1.14,10.61,.87,10.52c-.52-.17-.87-.69-.87-1.22,.09-.52,.52-.96,1.05-1.14L23.32,.13c.61-.17,1.22-.17,1.83,0l30.22,10.48c.52,.17,.96,.52,1.05,1.14s-.26,1.05-.79,1.22ZM24.28,2.93L5.94,9.48c2.53,1.14,6.64,2.79,11.18,4.54,1.05,.35,2.1,.52,3.14,.52,5.5,0,10.92-4.1,10.92-4.19,.44-.35,.96-.44,1.48-.44s1.05,.17,1.48,.44c1.48,1.14,6.11,4.1,9.69,4.1,.7,0,1.31-.09,1.92-.35,2.1-.87,3.67-1.57,4.8-2.1L24.28,2.93Z"/>
</svg>